<?xml version="1.0" encoding="UTF-8" standalone="no"?>
<!-- Created with Inkscape (http://www.inkscape.org/) -->

<svg
   width="210mm"
   height="297mm"
   viewBox="0 0 210 297"
   version="1.1"
   id="svg5"
   inkscape:version="1.1.2 (0a00cf5339, 2022-02-04)"
   sodipodi:docname="bad-infographic.svg"
   xmlns:inkscape="http://www.inkscape.org/namespaces/inkscape"
   xmlns:sodipodi="http://sodipodi.sourceforge.net/DTD/sodipodi-0.dtd"
   xmlns="http://www.w3.org/2000/svg"
   xmlns:svg="http://www.w3.org/2000/svg">
  <sodipodi:namedview
     id="namedview7"
     pagecolor="#ffffff"
     bordercolor="#666666"
     borderopacity="1.0"
     inkscape:pageshadow="2"
     inkscape:pageopacity="0.0"
     inkscape:pagecheckerboard="0"
     inkscape:document-units="mm"
     showgrid="false"
     inkscape:zoom="0.5"
     inkscape:cx="424"
     inkscape:cy="292"
     inkscape:window-width="1860"
     inkscape:window-height="1011"
     inkscape:window-x="60"
     inkscape:window-y="32"
     inkscape:window-maximized="1"
     inkscape:current-layer="layer1" />
  <defs
     id="defs2" />
  <g
     inkscape:label="Layer 1"
     inkscape:groupmode="layer"
     id="layer1">
    <rect
       style="fill:#800000;stroke-width:0.258272"
       id="rect28874"
       width="185.08694"
       height="124.63059"
       x="-1.3528529"
       y="-0.41757521"
       sodipodi:insensitive="true" />
    <rect
       style="fill:#ff0000;stroke-width:0.123012"
       id="rect28874-3"
       width="126.89652"
       height="41.237103"
       x="71.917702"
       y="151.86407" />
    <rect
       style="fill:#00ff00;stroke-width:0.20158"
       id="rect28874-6"
       width="173.45691"
       height="81.011971"
       x="-0.43665728"
       y="217.40623" />
    <text
       xml:space="preserve"
       style="font-size:10.5833px;line-height:1.25;font-family:Papyrus;-inkscape-font-specification:Papyrus;stroke-width:0.264583"
       x="79.479027"
       y="56.660172"
       id="text5600"><tspan
         sodipodi:role="line"
         id="tspan5598"
         style="font-weight:bold;stroke-width:0.264583"
         x="79.479027"
         y="56.660172" /></text>
    <text
       xml:space="preserve"
       style="font-size:10.5833px;line-height:1.25;font-family:Papyrus;-inkscape-font-specification:Papyrus;stroke-width:0.264583"
       x="-55.145546"
       y="247.1456"
       id="text33396"
       transform="rotate(-14.986193)"><tspan
         sodipodi:role="line"
         id="tspan33394"
         style="fill:#ff00ff;stroke-width:0.264583"
         x="-55.145546"
         y="247.1456">Discourse Communities</tspan></text>
    <text
       xml:space="preserve"
       style="font-size:10.5833px;line-height:1.25;font-family:Papyrus;-inkscape-font-specification:Papyrus;stroke-width:0.264583"
       x="-55.336559"
       y="246.96242"
       id="text33396-4"
       transform="rotate(-14.986193)"><tspan
         sodipodi:role="line"
         id="tspan33394-5"
         style="fill:#ff00ff;stroke-width:0.264583"
         x="-55.336559"
         y="246.96242">Discourse Communities</tspan></text>
    <text
       xml:space="preserve"
       style="font-size:10.5833px;line-height:1.25;font-family:Papyrus;-inkscape-font-specification:Papyrus;fill:#ffffff;stroke-width:0.264583"
       x="15.902553"
       y="40.846355"
       id="text33396-4-3"
       transform="rotate(0.013807)"><tspan
         sodipodi:role="line"
         id="tspan33394-5-6"
         style="fill:#ffffff;stroke-width:0.264583"
         x="15.902553"
         y="40.846355">How to make a </tspan></text>
    <text
       xml:space="preserve"
       style="font-size:10.5833px;line-height:1.25;font-family:Papyrus;-inkscape-font-specification:Papyrus;stroke-width:0.264583"
       x="49.102219"
       y="271.61932"
       id="text39752"><tspan
         sodipodi:role="line"
         id="tspan39750"
         style="font-style:normal;font-variant:normal;font-weight:normal;font-stretch:normal;font-family:'Noto Serif Display';-inkscape-font-specification:'Noto Serif Display';stroke-width:0.264583"
         x="49.102219"
         y="271.61932">Discourse Communities</tspan></text>
    <path
       style="fill:none;stroke:#000000;stroke-width:0.264583px;stroke-linecap:butt;stroke-linejoin:miter;stroke-opacity:1"
       d="m 10.212603,260.39625 c 8.995426,-3.53114 18.114696,-6.83061 27.543854,-9.01914 6.79066,-1.57613 5.611436,-1.07614 11.873378,-2.07614 2.026904,-0.32369 4.028392,-0.81338 6.0667,-1.05508 5.268412,-0.62472 10.570289,-0.92814 15.861006,-1.32152 3.509279,-0.26092 7.022041,-0.22291 10.53076,-0.4203 1.770168,-0.0996 3.410918,-0.50297 5.153321,-0.8091 2.657406,-0.46688 0.252243,0.19206 3.054382,-0.48168 0.675965,-0.16253 1.328118,-0.42328 2.01136,-0.55182 0.609031,-0.11458 1.239761,-0.0721 1.850906,-0.17481 2.024369,-0.34016 4.303239,-1.07325 6.26528,-1.62297 0.9765,-0.27359 4.89436,-1.26169 5.46742,-2.12127 0.17639,-0.26459 0.3714,-0.51766 0.52916,-0.79375 0.26008,-0.45513 0.007,-0.41053 0.26459,-0.92604 0.0558,-0.11156 0.18974,-0.16481 0.26458,-0.26459 0.34668,-0.46223 -0.0242,-0.0598 0.13229,-0.52916 0.0697,-0.20917 0.29827,-0.33196 0.39688,-0.52917 0.33025,-0.6605 0.65895,-1.45271 1.19062,-1.98437 0.0697,-0.0697 0.1857,-0.0731 0.26458,-0.1323 0.33798,-0.25348 0.4395,-0.60721 0.79375,-0.92604 0.6253,-0.56277 1.29816,-0.99812 1.98922,-1.45884 0.41531,-0.27687 0.73955,-0.66828 1.19063,-0.92604 0.34018,-0.19439 0.72195,-0.32734 1.05833,-0.52917 0.5313,-0.31878 2.61319,-1.71979 2.91042,-1.71979"
       id="path49370" />
    <text
       xml:space="preserve"
       style="font-size:10.5833px;line-height:1.25;font-family:Papyrus;-inkscape-font-specification:Papyrus;stroke-width:0.264583"
       x="71.959106"
       y="86.34008"
       id="text68873"><tspan
         sodipodi:role="line"
         id="tspan68871"
         style="fill:#ffffff;stroke-width:0.264583"
         x="71.959106"
         y="86.34008">infographic</tspan></text>
    <g
       id="g74243">
      <text
         xml:space="preserve"
         style="font-size:10.5833px;line-height:1.25;font-family:Papyrus;-inkscape-font-specification:Papyrus;fill:#ffffff;stroke-width:0.264583"
         x="63.197674"
         y="63.800171"
         id="text33396-4-3-1"
         transform="rotate(0.013807)"><tspan
           sodipodi:role="line"
           id="tspan33394-5-6-0"
           style="fill:#ffffff;stroke-width:0.264583"
           x="63.197674"
           y="63.800171">good</tspan></text>
      <path
         style="fill:#ffffff;fill-opacity:1;stroke:#fefefe;stroke-width:1.165;stroke-linecap:butt;stroke-linejoin:miter;stroke-miterlimit:4;stroke-dasharray:none;stroke-opacity:1"
         d="m 59.310599,62.352355 32.70037,-0.691142"
         id="path73581" />
    </g>
    <path
       style="fill:none;stroke:#fdfdfd;stroke-width:0.565;stroke-linecap:butt;stroke-linejoin:miter;stroke-miterlimit:4;stroke-dasharray:none;stroke-opacity:1"
       d="m 84.3472,35.759874 c 0.0441,0.7977 0.103087,1.594718 0.132291,2.393103 0,3.372617 -0.07997,-0.237876 0.132292,1.884696 0.16909,1.690886 -0.0213,0.968864 0.396875,-0.190918 0.277863,-0.770626 1.31636,-4.093102 1.837888,-4.458809 0.160698,-0.112683 0.977795,0.427641 1.188228,0.532858 0.176387,0.08819 0.389718,0.125137 0.529167,0.264583 0.482296,0.482299 1.472599,3.150743 1.472599,3.894326"
       id="path74092" />
  </g>
</svg>
