<svg width="454" height="160" viewBox="0 0 454 160" fill="none" xmlns="http://www.w3.org/2000/svg">
<path d="M157.928 63V21.272H167.592L178.472 42.008L182.568 51.224H182.824C182.653 49.0053 182.419 46.5307 182.12 43.8C181.821 41.0693 181.672 38.4667 181.672 35.992V21.272H190.632V63H180.968L170.088 42.2L165.992 33.112H165.736C165.949 35.416 166.184 37.8907 166.44 40.536C166.739 43.1813 166.888 45.7413 166.888 48.216V63H157.928ZM213.931 63.768C210.901 63.768 208.171 63.1067 205.739 61.784C203.307 60.4613 201.387 58.5627 199.979 56.088C198.571 53.6133 197.867 50.6267 197.867 47.128C197.867 43.672 198.571 40.7067 199.979 38.232C201.429 35.7573 203.307 33.8587 205.611 32.536C207.915 31.1707 210.325 30.488 212.843 30.488C215.872 30.488 218.368 31.1707 220.331 32.536C222.336 33.8587 223.829 35.672 224.811 37.976C225.835 40.2373 226.347 42.8187 226.347 45.72C226.347 46.5307 226.304 47.3413 226.219 48.152C226.133 48.92 226.048 49.496 225.963 49.88H206.955C207.381 52.184 208.341 53.8907 209.835 55C211.328 56.0667 213.12 56.6 215.211 56.6C217.472 56.6 219.755 55.896 222.059 54.488L225.195 60.184C223.573 61.2933 221.76 62.168 219.755 62.808C217.749 63.448 215.808 63.768 213.931 63.768ZM206.891 43.672H218.347C218.347 41.9227 217.92 40.4933 217.067 39.384C216.256 38.232 214.912 37.656 213.035 37.656C211.584 37.656 210.283 38.168 209.131 39.192C207.979 40.1733 207.232 41.6667 206.891 43.672ZM237.785 63L229.849 31.256H239.193L242.265 45.976C242.521 47.5547 242.755 49.112 242.969 50.648C243.182 52.184 243.417 53.7627 243.673 55.384H243.929C244.227 53.7627 244.505 52.1627 244.76 50.584C245.059 49.0053 245.4 47.4693 245.785 45.976L249.305 31.256H257.433L261.017 45.976C261.401 47.5547 261.742 49.112 262.041 50.648C262.382 52.184 262.702 53.7627 263.001 55.384H263.257C263.555 53.7627 263.79 52.184 263.961 50.648C264.174 49.112 264.43 47.5547 264.729 45.976L267.737 31.256H276.441L268.825 63H257.817L254.937 50.328C254.638 48.8347 254.339 47.3413 254.041 45.848C253.785 44.3547 253.507 42.7547 253.209 41.048H252.953C252.654 42.7547 252.377 44.3547 252.121 45.848C251.907 47.3413 251.651 48.8347 251.353 50.328L248.537 63H237.785ZM282.16 74.776V31.256H289.84L290.48 34.392H290.736C291.973 33.2827 293.36 32.3653 294.896 31.64C296.475 30.872 298.096 30.488 299.76 30.488C303.6 30.488 306.629 31.96 308.848 34.904C311.067 37.8053 312.176 41.7093 312.176 46.616C312.176 50.2427 311.536 53.336 310.256 55.896C308.976 58.456 307.312 60.4187 305.264 61.784C303.259 63.1067 301.104 63.768 298.8 63.768C297.435 63.768 296.112 63.4907 294.832 62.936C293.552 62.3387 292.357 61.5067 291.248 60.44L291.568 65.496V74.776H282.16ZM296.624 56.088C298.245 56.088 299.632 55.3413 300.784 53.848C301.936 52.3547 302.512 49.9867 302.512 46.744C302.512 41.0267 300.677 38.168 297.008 38.168C295.173 38.168 293.36 39.128 291.568 41.048V54.04C292.421 54.808 293.275 55.3413 294.128 55.64C294.981 55.9387 295.813 56.088 296.624 56.088ZM332.48 63.768C329.792 63.768 327.253 63.128 324.864 61.848C322.517 60.5253 320.618 58.6267 319.168 56.152C317.717 53.6347 316.992 50.6267 316.992 47.128C316.992 43.5867 317.717 40.5787 319.168 38.104C320.618 35.6293 322.517 33.752 324.864 32.472C327.253 31.1493 329.792 30.488 332.48 30.488C335.168 30.488 337.685 31.1493 340.032 32.472C342.378 33.752 344.277 35.6293 345.728 38.104C347.178 40.5787 347.904 43.5867 347.904 47.128C347.904 50.6267 347.178 53.6347 345.728 56.152C344.277 58.6267 342.378 60.5253 340.032 61.848C337.685 63.128 335.168 63.768 332.48 63.768ZM332.48 56.152C334.4 56.152 335.85 55.3413 336.832 53.72C337.813 52.056 338.304 49.8587 338.304 47.128C338.304 44.3547 337.813 42.1573 336.832 40.536C335.85 38.9147 334.4 38.104 332.48 38.104C330.517 38.104 329.045 38.9147 328.064 40.536C327.125 42.1573 326.656 44.3547 326.656 47.128C326.656 49.8587 327.125 52.056 328.064 53.72C329.045 55.3413 330.517 56.152 332.48 56.152ZM354.348 63V31.256H362.028L362.668 36.824H362.924C364.076 34.6907 365.462 33.112 367.083 32.088C368.705 31.0213 370.326 30.488 371.948 30.488C372.844 30.488 373.59 30.552 374.188 30.68C374.785 30.7653 375.297 30.9147 375.724 31.128L374.188 39.256C373.633 39.0853 373.078 38.9573 372.524 38.872C372.012 38.7867 371.414 38.744 370.732 38.744C369.537 38.744 368.278 39.192 366.956 40.088C365.676 40.9413 364.609 42.4347 363.756 44.568V63H354.348ZM392.072 63.768C388.146 63.768 385.33 62.6373 383.624 60.376C381.96 58.1147 381.128 55.1493 381.128 51.48V38.616H376.776V31.64L381.64 31.256L382.728 22.808H390.536V31.256H398.152V38.616H390.536V51.352C390.536 53.144 390.898 54.4453 391.624 55.256C392.392 56.024 393.394 56.408 394.632 56.408C395.144 56.408 395.656 56.344 396.168 56.216C396.722 56.088 397.213 55.9387 397.64 55.768L399.112 62.616C398.301 62.872 397.298 63.128 396.104 63.384C394.952 63.64 393.608 63.768 392.072 63.768ZM157.928 143V101.272H172.2C175.101 101.272 177.704 101.592 180.008 102.232C182.312 102.829 184.147 103.875 185.512 105.368C186.877 106.861 187.56 108.952 187.56 111.64C187.56 113.475 187.069 115.288 186.088 117.08C185.149 118.829 183.827 120.024 182.12 120.664V120.92C184.253 121.475 186.024 122.563 187.432 124.184C188.883 125.763 189.608 127.939 189.608 130.712C189.608 133.571 188.883 135.896 187.432 137.688C185.981 139.48 184.04 140.824 181.608 141.72C179.176 142.573 176.445 143 173.416 143H157.928ZM167.336 117.976H171.752C174.056 117.976 175.72 117.528 176.744 116.632C177.811 115.736 178.344 114.541 178.344 113.048C178.344 111.427 177.811 110.275 176.744 109.592C175.677 108.909 174.035 108.568 171.816 108.568H167.336V117.976ZM167.336 135.704H172.648C177.811 135.704 180.392 133.827 180.392 130.072C180.392 128.237 179.752 126.936 178.472 126.168C177.192 125.357 175.251 124.952 172.648 124.952H167.336V135.704ZM209.542 143.768C206.854 143.768 204.315 143.128 201.926 141.848C199.579 140.525 197.681 138.627 196.23 136.152C194.779 133.635 194.054 130.627 194.054 127.128C194.054 123.587 194.779 120.579 196.23 118.104C197.681 115.629 199.579 113.752 201.926 112.472C204.315 111.149 206.854 110.488 209.542 110.488C212.23 110.488 214.747 111.149 217.094 112.472C219.441 113.752 221.339 115.629 222.79 118.104C224.241 120.579 224.966 123.587 224.966 127.128C224.966 130.627 224.241 133.635 222.79 136.152C221.339 138.627 219.441 140.525 217.094 141.848C214.747 143.128 212.23 143.768 209.542 143.768ZM209.542 136.152C211.462 136.152 212.913 135.341 213.894 133.72C214.875 132.056 215.366 129.859 215.366 127.128C215.366 124.355 214.875 122.157 213.894 120.536C212.913 118.915 211.462 118.104 209.542 118.104C207.579 118.104 206.107 118.915 205.126 120.536C204.187 122.157 203.718 124.355 203.718 127.128C203.718 129.859 204.187 132.056 205.126 133.72C206.107 135.341 207.579 136.152 209.542 136.152ZM238.723 143.768C235.821 143.768 233.517 142.851 231.811 141.016C230.104 139.139 229.251 136.856 229.251 134.168C229.251 130.84 230.659 128.237 233.475 126.36C236.291 124.483 240.835 123.224 247.107 122.584C247.021 121.176 246.595 120.067 245.827 119.256C245.101 118.403 243.864 117.976 242.115 117.976C240.792 117.976 239.448 118.232 238.083 118.744C236.717 119.256 235.267 119.96 233.731 120.856L230.339 114.648C232.344 113.411 234.477 112.408 236.739 111.64C239.043 110.872 241.432 110.488 243.907 110.488C247.96 110.488 251.075 111.661 253.251 114.008C255.427 116.355 256.515 119.96 256.515 124.824V143H248.835L248.195 139.736H247.939C246.616 140.931 245.187 141.912 243.651 142.68C242.157 143.405 240.515 143.768 238.723 143.768ZM241.923 136.472C242.989 136.472 243.907 136.237 244.675 135.768C245.485 135.256 246.296 134.595 247.107 133.784V128.216C243.779 128.643 241.475 129.325 240.195 130.264C238.915 131.16 238.275 132.227 238.275 133.464C238.275 134.488 238.595 135.256 239.235 135.768C239.917 136.237 240.813 136.472 241.923 136.472ZM275.572 143.768C271.646 143.768 268.83 142.637 267.124 140.376C265.46 138.115 264.628 135.149 264.628 131.48V118.616H260.276V111.64L265.14 111.256L266.228 102.808H274.036V111.256H281.652V118.616H274.036V131.352C274.036 133.144 274.398 134.445 275.124 135.256C275.892 136.024 276.894 136.408 278.132 136.408C278.644 136.408 279.156 136.344 279.668 136.216C280.222 136.088 280.713 135.939 281.14 135.768L282.612 142.616C281.801 142.872 280.798 143.128 279.604 143.384C278.452 143.64 277.108 143.768 275.572 143.768ZM314.164 143.768C311.433 143.768 308.703 143.256 305.972 142.232C303.284 141.208 300.873 139.715 298.74 137.752L304.116 131.288C305.609 132.568 307.273 133.613 309.108 134.424C310.943 135.235 312.713 135.64 314.42 135.64C316.383 135.64 317.833 135.277 318.772 134.552C319.753 133.827 320.244 132.845 320.244 131.608C320.244 130.285 319.689 129.325 318.58 128.728C317.513 128.088 316.063 127.384 314.228 126.616L308.788 124.312C307.38 123.715 306.036 122.925 304.756 121.944C303.476 120.92 302.431 119.661 301.62 118.168C300.809 116.675 300.404 114.925 300.404 112.92C300.404 110.616 301.023 108.525 302.26 106.648C303.54 104.771 305.289 103.277 307.508 102.168C309.769 101.059 312.351 100.504 315.252 100.504C317.641 100.504 320.031 100.973 322.42 101.912C324.809 102.851 326.9 104.216 328.692 106.008L323.892 111.96C322.527 110.893 321.161 110.083 319.796 109.528C318.431 108.931 316.916 108.632 315.252 108.632C313.631 108.632 312.329 108.973 311.348 109.656C310.409 110.296 309.94 111.213 309.94 112.408C309.94 113.688 310.537 114.648 311.732 115.288C312.969 115.928 314.484 116.611 316.276 117.336L321.652 119.512C324.169 120.536 326.175 121.944 327.668 123.736C329.161 125.528 329.908 127.896 329.908 130.84C329.908 133.144 329.289 135.277 328.052 137.24C326.815 139.203 325.023 140.781 322.676 141.976C320.329 143.171 317.492 143.768 314.164 143.768ZM336.223 143V98.136H345.631V109.144L345.183 114.84C346.377 113.773 347.764 112.792 349.343 111.896C350.964 110.957 352.841 110.488 354.975 110.488C358.431 110.488 360.927 111.64 362.463 113.944C364.041 116.205 364.831 119.32 364.831 123.288V143H355.423V124.504C355.423 122.2 355.103 120.621 354.463 119.768C353.865 118.915 352.884 118.488 351.519 118.488C350.324 118.488 349.3 118.765 348.447 119.32C347.593 119.832 346.655 120.579 345.631 121.56V143H336.223ZM386.417 143.768C383.729 143.768 381.19 143.128 378.801 141.848C376.454 140.525 374.556 138.627 373.105 136.152C371.654 133.635 370.929 130.627 370.929 127.128C370.929 123.587 371.654 120.579 373.105 118.104C374.556 115.629 376.454 113.752 378.801 112.472C381.19 111.149 383.729 110.488 386.417 110.488C389.105 110.488 391.622 111.149 393.969 112.472C396.316 113.752 398.214 115.629 399.665 118.104C401.116 120.579 401.841 123.587 401.841 127.128C401.841 130.627 401.116 133.635 399.665 136.152C398.214 138.627 396.316 140.525 393.969 141.848C391.622 143.128 389.105 143.768 386.417 143.768ZM386.417 136.152C388.337 136.152 389.788 135.341 390.769 133.72C391.75 132.056 392.241 129.859 392.241 127.128C392.241 124.355 391.75 122.157 390.769 120.536C389.788 118.915 388.337 118.104 386.417 118.104C384.454 118.104 382.982 118.915 382.001 120.536C381.062 122.157 380.593 124.355 380.593 127.128C380.593 129.859 381.062 132.056 382.001 133.72C382.982 135.341 384.454 136.152 386.417 136.152ZM413.097 143L405.161 111.256H414.505L417.577 125.976C417.833 127.555 418.068 129.112 418.281 130.648C418.494 132.184 418.729 133.763 418.985 135.384H419.241C419.54 133.763 419.817 132.163 420.073 130.584C420.372 129.005 420.713 127.469 421.097 125.976L424.617 111.256H432.745L436.329 125.976C436.713 127.555 437.054 129.112 437.353 130.648C437.694 132.184 438.014 133.763 438.313 135.384H438.569C438.868 133.763 439.102 132.184 439.273 130.648C439.486 129.112 439.742 127.555 440.041 125.976L443.049 111.256H451.753L444.137 143H433.129L430.249 130.328C429.95 128.835 429.652 127.341 429.353 125.848C429.097 124.355 428.82 122.755 428.521 121.048H428.265C427.966 122.755 427.689 124.355 427.433 125.848C427.22 127.341 426.964 128.835 426.665 130.328L423.849 143H413.097Z" fill="white"/>
<path d="M0 110.484L65.7 17V110.484H0Z" fill="white"/>
<path d="M75.6 110.484V44.5484L126 110.484H75.6Z" fill="white"/>
<path d="M117.9 121.323H8.55L25.2 143H101.25L117.9 121.323Z" fill="white"/>
</svg>
